<svg width="200px" height="313px" viewBox="0 0 200 313" xmlns="http://www.w3.org/2000/svg" xmlns:xlink="http://www.w3.org/1999/xlink">
  <defs>
    <path d="M79.406 65.52c-5.61 21.767-11.22 43.541-.366 65.315H6.594C-4.502 109.061.861 87.294 6.23 65.52 11.598 43.746 16.96 21.96 5.882.204h73.895c10.855 21.755 5.245 43.542-.371 65.316z" id="a"/>
  </defs>
  <g fill="none" fill-rule="evenodd">
    <g fill-rule="nonzero">
      <path fill="#11EA53" d="M12.068 220.962l4.335 24.28 2.65-24.528-4.768-7.528-2.217 7.776"/>
      <path fill="#6E6689" d="M6.112 220.77l10.024 15.136 9.883 8.42 5.789 13.8 18.075 17.252-16.044-41.773z"/>
      <path fill="#6E6689" d="M178.904 222.193l-37.684 45.174-8.198 9.83-.57.686-20.254 24.28h-.006l-8.656 10.38-37.684-45.176-37.685-45.174z"/>
      <path fill="#6E6689" d="M90.756 222.193l-20.44 26.592-7.678 9.99-1.61 2.097-9.808 12.768-1.337 1.738-20.44-26.593-3.418-4.454-.012-.012L9.01 222.193z"/>
      <path fill="#6E6689" d="M191.078 222.193L166 254.83l-25.083 33.706-2.911-3.916-.068-.086-5.684-7.646-1.337-1.787-15.078-20.27-25.083-32.637z"/>
      <path fill="#11EA53" d="M7.69 221.815l4.193 16.758 1.969-16.925-4.02-5.196-2.141 5.363"/>
      <path fill="#11EA53" d="M194.427 221.593l-4.681 26.246-2.873-26.512 5.158-8.14 2.396 8.406"/>
      <path fill="#11EA53" d="M43.313 220.287l4.47 13.77 2.1-13.912-4.285-4.268-2.285 4.41"/>
      <path fill="#FFB627" d="M29.369 30.347h3.913V181.98h-3.913z"/>
      <path fill="#6E6689" d="M64.285 257.878l-1.678 6.031-4.025 1.85-1.894 3.433-5.468 4.448-.402-8.425 9.715-5.295 2.105-1.145z"/>
      <path fill="#6E6689" d="M61.56 262.227l14.168 25.838 11.826 5.32"/>
      <path d="M28.44 65.415h5.92a3.262 3.262 0 0 1 3.262 3.247v4.949a3.258 3.258 0 0 1-3.263 3.26h-5.92a2.296 2.296 0 0 1-2.297-2.295v-6.867a2.296 2.296 0 0 1 2.298-2.294z" fill="#2D1568"/>
      <path d="M168.572 99.196l3.797-5.49a5.267 5.267 0 0 1 7.327-1.34 5.261 5.261 0 0 1 2.197 3.389 5.272 5.272 0 0 1-.85 3.95l-3.797 5.49a3.311 3.311 0 0 1-4.606.842l-3.206-2.217a3.308 3.308 0 0 1-.862-4.624z" fill="#2D1568"/>
      <path fill="#6E6689" d="M135.369 271.221l-2.347 5.975-.67 1.702-5.695 14.487-14.46 8.777h-.005l-3.975-14.697 24.737-14.803z"/>
      <path fill="#6E6689" d="M138.075 284.576l-.137-.043-3.461-1.095-2.582-3.378-2.1-2.746 1.122-2.214 1.975-3.89.892-1.764z"/>
      <path d="M148.254 277.927l8.854-3.458 12.855-24.799 26.371-21.533-3.671-10.398s-13.48 2.765-13.753 3.019" fill="#6E6689"/>
      <path d="M169.362 93.448c.77 0 1.393.624 1.393 1.392v6.143a.142.142 0 0 1-.142.142h-2.477a.142.142 0 0 1-.142-.142V94.84c0-.759.608-1.378 1.368-1.392z" fill="#2D1568"/>
      <path fill="#353354" opacity=".2" d="M187.51 219.063l-13.826 24.118 24.366-24.118z"/>
      <path fill="#353354" opacity=".2" d="M139.449 247.5l23.56-25.338-31.48.031-2.458-7.108H108.88l-21.326 35.952 25.332 23.34-14.285 17.95 4.935 20.215 8.656-10.38h.006l14.459-8.777 5.238-13.325 2.582 3.378 3.46 1.095.069.086.069-.043-3.493-12.328 20.397-26.345z"/>
      <path fill="#11EA53" d="M129.796 222.032l-4.93 27.601-3.014-27.886 5.424-8.56 2.52 8.845"/>
      <path fill="#353354" opacity=".2" d="M34.86 247.45l3.159 2.671 14.155 10.906-2.291 14.351 1.337-1.738 5.468-4.448 1.894-3.433 4.025-1.85-1.58-3.037-.494-.952-19.63-37.727-.742-1.423-2.75 1.423-16.655-.106 17.77 17.011z"/>
      <path fill="#11EA53" d="M36.44 222.36l5.065 20.246 2.384-20.45-4.855-6.279-2.594 6.483"/>
      <path fill="#11EA53" d="M188.062 219.588l1.969 10.924L192 219.477l-2.57-3.39-1.368 3.501"/>
      <path fill="#353354" opacity=".2" d="M52.923 220.467l19.374 39.93-6.662-39.93z"/>
    </g>
    <g transform="translate(33.746 1.856)">
      <path d="M96.409 117.344s25.436 10.04 41.028-14.778" stroke="#2D1568" stroke-width="3.115"/>
      <path d="M36 103.81s-30.384 0-35.913-32.618" stroke="#2D1568" stroke-width="3.115"/>
      <path d="M87.195 162.754s-16.099 14.14-4.62 47.012" stroke="#2D1568" stroke-width="3.115"/>
      <path d="M52.57 162.754s-16.1 14.14-4.62 47.012" stroke="#2D1568" stroke-width="3.115"/>
      <g transform="translate(22.291 44.228)">
        <mask id="b" fill="#fff">
          <use xlink:href="#a"/>
        </mask>
        <use fill="#23CF5F" fill-rule="nonzero" xlink:href="#a"/>
        <path d="M23.95.204H5.845V18.28c9.995 0 18.099-8.09 18.105-18.075z" fill="#11EA53" fill-rule="nonzero" mask="url(#b)"/>
        <path d="M85.313.204H67.22c.003 9.981 8.102 18.072 18.093 18.075V.204z" fill="#11EA53" fill-rule="nonzero" mask="url(#b)"/>
        <path d="M79.412 112.754c-9.994 0-18.096 8.092-18.1 18.075h18.094l.006-18.075z" fill="#11EA53" fill-rule="nonzero" mask="url(#b)"/>
        <path d="M.83 112.754v18.075h18.105c-.007-9.984-8.11-18.075-18.105-18.075z" fill="#11EA53" fill-rule="nonzero" mask="url(#b)"/>
      </g>
      <ellipse fill="#11EA53" fill-rule="nonzero" cx="62.105" cy="109.748" rx="19.981" ry="19.961"/>
      <path d="M84.378 211.244c0-3.854-3.616-6.971-8.05-6.971-4.433 0-8.05 3.093-8.05 6.971h16.1z" fill="#2D1568" fill-rule="nonzero"/>
      <path d="M49.777 211.244c0-3.854-3.616-6.971-8.05-6.971-4.433 0-8.049 3.093-8.049 6.971h16.1z" fill="#2D1568" fill-rule="nonzero"/>
      <path d="M101.697 109.748c-5.61 21.768-11.22 43.542-.366 65.315h-38.86c-11.096-21.773-5.734-43.541-.366-65.315 5.369-21.774 10.73-43.542-.365-65.316h40.328c10.855 21.756 5.245 43.542-.371 65.316z" fill="#1AB74A" fill-rule="nonzero" opacity=".2"/>
      <path fill="#FFB627" fill-rule="nonzero" d="M96.409 14.741l-3.914 14.474-1.696 6.267H58.458l-1.696-6.267-3.914-14.474 12 7.454L74.632.204l9.777 21.991z"/>
    </g>
    <g fill-rule="nonzero">
      <ellipse fill="#FFB627" cx="31.325" cy="186.55" rx="3.622" ry="3.619"/>
      <path fill="#FFB627" d="M31.325 5.215l-2.043 3.161 2.043 3.167 2.043-3.167z"/>
      <path fill="#E2900E" opacity=".36" d="M31.325 5.215v6.328l2.043-3.167-2.043-3.161"/>
      <path fill="#E2900E" opacity=".36" d="M33.368 8.376h-4.086l2.043 3.167z"/>
      <path d="M30.056 11.543h2.538c.89 0 1.61.72 1.61 1.608v.699h-5.758v-.7c0-.887.72-1.607 1.61-1.607z" fill="#E2900E"/>
      <path d="M30.384 10.621h1.857c.23 0 .415.186.415.414v.508h-2.68v-.508c0-.226.181-.41.408-.414z" fill="#C6760C"/>
      <ellipse fill="#6338AA" cx="31.325" cy="21.322" rx="8.254" ry="8.246"/>
      <path d="M9.015 213.1s-16.42-.408-3.337 30.081L9.003 222.2l.012-9.1z" fill="#11EA53"/>
      <path d="M191.406 213.1s16.42-.408 3.337 30.081l-3.306-20.784-.031-9.297z" fill="#11EA53"/>
      <path d="M32.254 17.469a.452.452 0 0 1-.446-.458v-.31a.451.451 0 0 1 .446-.457h1.523a.452.452 0 0 1 .446.458v.29a.451.451 0 0 1-.446.458l-1.523.019z" fill="#FFF"/>
      <path d="M28.632 26.388a.452.452 0 0 1-.446-.457v-.291a.451.451 0 0 1 .446-.458h1.523a.452.452 0 0 1 .446.458v.29a.451.451 0 0 1-.446.458h-1.523z" fill="#FFF"/>
      <path d="M32.353 20.605a8.242 8.242 0 0 0-.873-.235 4.567 4.567 0 0 1-1.703-.576 1.157 1.157 0 0 1-.62-.785c-.092-.4-.01-.82.224-1.157a1.12 1.12 0 0 1 .13-.142c.164-.125.351-.215.55-.266.16-.029.322-.047.484-.056a.557.557 0 0 0 .501-.73.62.62 0 0 0-.619-.402H29.84c-.111.02-.22.047-.328.08a2.414 2.414 0 0 0-1.239 1.009 2.516 2.516 0 0 0 .211 2.92c.768.853 2.043 1.039 3.096 1.323a3.6 3.6 0 0 1 1.38.619c.272.238.442.57.478.928.075.436.015.885-.174 1.286a1.485 1.485 0 0 1-.508.557c-.087.058-.178.11-.272.155-.15.059-.31.094-.47.105h-.366a.57.57 0 1 0 .074 1.132h.403a3.06 3.06 0 0 0 1.857-.841 3.27 3.27 0 0 0 .477-3.124 3.015 3.015 0 0 0-2.105-1.8z" fill="#FFF"/>
      <path fill="#11EA53" d="M64.39 214.9l-3.337-12.879 6.563 11.58z"/>
      <path fill="#11EA53" d="M61.424 215.401l-3.783-6.928 6.396 4.627z"/>
      <path fill="#11EA53" d="M117.35 213.149l6.6-5.344-3.9 7.546z"/>
      <path fill="#11EA53" d="M191.424 222.397H9.01V213.1h182.415z"/>
      <path d="M127.406 32.333v3.711c0 .7-.569 1.269-1.27 1.269H108.36V2.053l9.777 21.991 12.019-7.448-3.914 14.475c.665.04 1.18.597 1.165 1.262z" fill="#EA9206" opacity=".4"/>
      <path d="M127.406 32.333v3.711c0 .7-.569 1.269-1.27 1.269H90.613a1.269 1.269 0 0 1-1.238-1.269v-3.711a1.238 1.238 0 0 1 1.164-1.237h35.733a1.238 1.238 0 0 1 1.134 1.237z" fill="#E2900E"/>
      <path fill="#E2900E" d="M108.378 16.757l-3.524 6.638 3.524 6.637 3.523-6.637z"/>
      <path fill="#6338AA" d="M108.378 18.761l-2.458 4.634 2.458 4.633 2.458-4.633z"/>
      <path fill="#522BB2" opacity=".5" d="M108.378 18.761v9.267l2.458-4.633-2.458-4.634"/>
      <path fill="#522BB2" opacity=".5" d="M110.836 23.395h-4.916l2.458 4.633z"/>
      <ellipse fill="#6338AA" cx="92.898" cy="34.201" rx="1.22" ry="1.219"/>
      <ellipse fill="#6338AA" cx="100.44" cy="34.201" rx="1.22" ry="1.219"/>
      <ellipse fill="#6338AA" cx="115.529" cy="34.201" rx="1.22" ry="1.219"/>
      <ellipse fill="#6338AA" cx="123.071" cy="34.201" rx="1.22" ry="1.219"/>
      <ellipse fill="#6338AA" cx="107.988" cy="34.201" rx="1.22" ry="1.219"/>
      <ellipse fill="#E2900E" cx="108.378" cy="2.06" rx="2.062" ry="2.06"/>
      <ellipse fill="#E2900E" transform="rotate(-45 86.603 16.755)" cx="86.603" cy="16.755" rx="1.455" ry="1.454"/>
      <rect fill="#E2900E" x="26.446" y="28.943" width="9.759" height="3.903" rx="1.952"/>
      <rect fill="#E2900E" x="26.446" y="180.111" width="9.759" height="3.903" rx="1.952"/>
      <ellipse fill="#E2900E" transform="rotate(-45 129.95 16.759)" cx="129.95" cy="16.759" rx="1.455" ry="1.454"/>
    </g>
  </g>
</svg>
